<svg xmlns="http://www.w3.org/2000/svg" viewBox="0 0 160 160" fill="none">
  <path d="M43 54 C31 52 24 42 27 31 C30 20 40 17 49 24 C58 31 59 44 52 51 C50 54 47 55 43 54 Z" fill="#111"/>
  <path d="M76 42 C64 40 58 29 61 18 C64 7 76 3 86 10 C96 18 98 32 90 40 C86 44 81 44 76 42 Z" fill="#111"/>
  <path d="M112 48 C101 46 96 35 100 24 C104 13 116 10 125 18 C134 26 134 40 125 47 C121 50 116 50 112 48 Z" fill="#111"/>
  <path d="M130 77 C119 75 113 65 117 54 C121 43 133 40 142 48 C151 56 152 69 144 76 C140 79 135 79 130 77 Z" fill="#111"/>
  <path d="M73 68
           C89 60 108 68 116 84
           C123 99 118 121 102 125
           C92 128 88 121 79 124
           C68 128 55 139 42 130
           C30 122 36 104 45 91
           C53 80 58 75 73 68 Z"
        fill="#111"/>
  <path d="M35 33 C36 27 40 23 45 24" stroke="#fff" stroke-width="4" stroke-linecap="round" opacity=".35"/>
  <path d="M69 20 C70 14 75 10 81 11" stroke="#fff" stroke-width="4" stroke-linecap="round" opacity=".35"/>
  <path d="M108 27 C111 21 116 18 121 20" stroke="#fff" stroke-width="4" stroke-linecap="round" opacity=".35"/>
  <path d="M127 55 C131 51 136 51 140 54" stroke="#fff" stroke-width="4" stroke-linecap="round" opacity=".35"/>
  <path d="M55 91 C66 78 83 72 96 78" stroke="#fff" stroke-width="5" stroke-linecap="round" opacity=".25"/>
</svg>
